<svg xmlns="http://www.w3.org/2000/svg" xmlns:v="https://vecta.io/nano" width="95" height="95" fill="none"><mask id="A" maskUnits="userSpaceOnUse" x="0" y="0" width="95" height="95" mask-type="alpha"><circle cx="47.5" cy="47.5" r="47" fill="#d9d9d9" stroke="#3b6ff5"/></mask><g mask="url(#A)"><path d="M35.044-64.787L-48.721 55.222M85.098-11.882L1.332 108.127M43.387-55.969L-40.379 64.039M93.44-3.064L9.674 116.944M51.729-47.152L-32.037 72.857M101.782 5.753L18.017 125.762M60.071-38.334L-23.695 81.674m133.82-67.103L26.359 134.579M68.414-29.517L-15.352 90.492m133.819-67.104L34.701 143.397M76.755-20.699L-7.01 99.309M39.215-60.378L-44.55 59.631M89.269-7.473L5.503 112.535M47.558-51.56L-36.208 68.448M97.611 1.344L13.846 121.353M55.9-42.743L-27.866 77.266m133.819-67.104L22.187 130.17M64.242-33.925L-19.523 86.083m133.819-67.104L30.53 138.987M72.585-25.108L-11.181 94.9m133.819-67.104L38.872 147.805M80.927-16.291L-2.839 103.718" stroke="#f7cf47" stroke-width="2" stroke-linecap="round"/></g></svg>